<svg width="75" height="75" viewBox="0 0 75 75" fill="none" xmlns="http://www.w3.org/2000/svg">
<g id="Video Game Mario Flower 1">
<path id="Vector" d="M25.1562 26.3719C26.0353 25.4931 27.2274 24.9994 28.4703 24.9994C29.7133 24.9994 30.9053 25.4931 31.7844 26.3719" stroke="#8DE969" stroke-width="3" stroke-linecap="round" stroke-linejoin="round"/>
<path id="Vector_2" d="M43.9062 26.3719C44.7853 25.4931 45.9774 24.9994 47.2203 24.9994C48.4633 24.9994 49.6553 25.4931 50.5344 26.3719" stroke="#8DE969" stroke-width="3" stroke-linecap="round" stroke-linejoin="round"/>
<path id="Vector_3" d="M37.8469 48.4375V71.875" stroke="#8DE969" stroke-width="3" stroke-linecap="round" stroke-linejoin="round"/>
<path id="Vector_4" d="M14.4094 10.3906C14.4087 9.97593 14.5183 9.56851 14.7269 9.21006C14.9354 8.85161 15.2354 8.555 15.5963 8.35059C15.9571 8.14618 16.3657 8.0413 16.7804 8.04669C17.1951 8.05207 17.6009 8.16753 17.9562 8.38125L26.1281 13.2813L36.1875 3.21875C36.4051 3.00096 36.6636 2.82818 36.948 2.7103C37.2325 2.59243 37.5374 2.53175 37.8453 2.53175C38.1532 2.53175 38.4581 2.59243 38.7426 2.7103C39.027 2.82818 39.2855 3.00096 39.5031 3.21875L49.5656 13.2813L57.7344 8.38125C58.09 8.16778 58.4959 8.0525 58.9107 8.0472C59.3254 8.0419 59.7341 8.14676 60.0951 8.35108C60.4561 8.5554 60.7564 8.85185 60.9653 9.21017C61.1742 9.56849 61.2843 9.97584 61.2844 10.3906V25C61.2844 31.216 58.8151 37.1774 54.4197 41.5728C50.0243 45.9682 44.0629 48.4375 37.8469 48.4375C31.6309 48.4375 25.6694 45.9682 21.2741 41.5728C16.8787 37.1774 14.4094 31.216 14.4094 25V10.3906Z" stroke="#8DE969" stroke-width="3" stroke-linecap="round" stroke-linejoin="round"/>
<path id="Vector_5" d="M10.1563 71.875C9.7002 71.8751 9.25402 71.7421 8.87243 71.4923C8.49084 71.2425 8.1904 70.8869 8.00795 70.4689C7.8255 70.0509 7.76896 69.5888 7.84526 69.1391C7.92156 68.6895 8.12739 68.2719 8.43751 67.9375C12.3031 63.775 18.725 57.8125 23.7844 57.8125C27.514 57.8125 31.0908 59.2941 33.7281 61.9313C36.3653 64.5685 37.8469 68.1454 37.8469 71.875H10.1563Z" stroke="#8DE969" stroke-width="3" stroke-linecap="round" stroke-linejoin="round"/>
<path id="Vector_6" d="M65.5344 71.875C65.9904 71.8751 66.4366 71.7421 66.8182 71.4923C67.1998 71.2425 67.5002 70.8869 67.6827 70.4689C67.8651 70.0509 67.9217 69.5888 67.8454 69.1391C67.7691 68.6895 67.5632 68.2719 67.2531 67.9375C63.3875 63.775 56.9656 57.8125 51.9094 57.8125C48.1798 57.8125 44.6029 59.2941 41.9657 61.9313C39.3284 64.5685 37.8469 68.1454 37.8469 71.875H65.5344Z" stroke="#8DE969" stroke-width="3" stroke-linecap="round" stroke-linejoin="round"/>
</g>
</svg>
