<svg width="30" height="31" viewBox="0 0 30 31" fill="none" xmlns="http://www.w3.org/2000/svg">
<g id="hum" clip-path="url(#clip0_2003_55)" filter="url(#filter0_di_2003_55)">
<path id="Vector" d="M15 3.87581L8.81253 10.0633C7.58891 11.2871 6.75565 12.8462 6.4181 14.5435C6.08055 16.2408 6.25388 18.0001 6.91617 19.5989C7.57847 21.1977 8.69998 22.5642 10.1389 23.5256C11.5778 24.487 13.2695 25.0002 15 25.0002C16.7306 25.0002 18.4223 24.487 19.8612 23.5256C21.3001 22.5642 22.4216 21.1977 23.0839 19.5989C23.7462 18.0001 23.9195 16.2408 23.582 14.5435C23.2444 12.8462 22.4112 11.2871 21.1875 10.0633L15 3.87581ZM15 0.340805L22.955 8.29581C24.5284 9.86915 25.5998 11.8737 26.0339 14.056C26.4679 16.2383 26.2451 18.5003 25.3937 20.5559C24.5422 22.6116 23.1002 24.3686 21.2502 25.6048C19.4001 26.8409 17.2251 27.5007 15 27.5007C12.775 27.5007 10.5999 26.8409 8.74988 25.6048C6.89983 24.3686 5.45789 22.6116 4.6064 20.5559C3.75491 18.5003 3.53212 16.2383 3.96619 14.056C4.40026 11.8737 5.47171 9.86915 7.04503 8.29581L15 0.340805Z" fill="white"/>
</g>
<defs>
<filter id="filter0_di_2003_55" x="-2.26238" y="1.14441e-05" width="32.2624" height="33.0166" filterUnits="userSpaceOnUse" color-interpolation-filters="sRGB">
<feFlood flood-opacity="0" result="BackgroundImageFix"/>
<feColorMatrix in="SourceAlpha" type="matrix" values="0 0 0 0 0 0 0 0 0 0 0 0 0 0 0 0 0 0 127 0" result="hardAlpha"/>
<feOffset dx="-1.50827" dy="2.26241"/>
<feGaussianBlur stdDeviation="0.377069"/>
<feColorMatrix type="matrix" values="0 0 0 0 0 0 0 0 0 0 0 0 0 0 0 0 0 0 0.1 0"/>
<feBlend mode="normal" in2="BackgroundImageFix" result="effect1_dropShadow_2003_55"/>
<feBlend mode="normal" in="SourceGraphic" in2="effect1_dropShadow_2003_55" result="shape"/>
<feColorMatrix in="SourceAlpha" type="matrix" values="0 0 0 0 0 0 0 0 0 0 0 0 0 0 0 0 0 0 127 0" result="hardAlpha"/>
<feOffset dx="-0.754137" dy="0.754137"/>
<feGaussianBlur stdDeviation="0.754137"/>
<feComposite in2="hardAlpha" operator="arithmetic" k2="-1" k3="1"/>
<feColorMatrix type="matrix" values="0 0 0 0 1 0 0 0 0 1 0 0 0 0 1 0 0 0 0.25 0"/>
<feBlend mode="normal" in2="shape" result="effect2_innerShadow_2003_55"/>
</filter>
<clipPath id="clip0_2003_55">
<rect width="30" height="30" fill="white"/>
</clipPath>
</defs>
</svg>
