<svg width="30" height="31" viewBox="0 0 30 31" fill="none" xmlns="http://www.w3.org/2000/svg">
<g id="windy" filter="url(#filter0_di_2003_52)">
<path id="Vector" d="M13.125 21.2496L5.00003 21.2496L5.00003 18.7496L13.125 18.7496C13.9235 18.7498 14.7066 18.9686 15.3896 19.3822C16.0726 19.7957 16.6293 20.3883 16.9996 21.0957C17.3699 21.8031 17.5395 22.5983 17.4901 23.3952C17.4407 24.1922 17.1741 24.9603 16.7194 25.6166C16.2646 26.2728 15.6389 26.7921 14.91 27.1182C14.1812 27.4442 13.377 27.5646 12.5847 27.4663C11.7923 27.3679 11.042 27.0546 10.415 26.5603C9.78792 26.066 9.30812 25.4096 9.02753 24.6621L11.3688 23.7833C11.489 24.1037 11.6946 24.3851 11.9633 24.5969C12.232 24.8088 12.5536 24.9431 12.8932 24.9853C13.2327 25.0274 13.5774 24.9759 13.8898 24.8362C14.2021 24.6965 14.4703 24.4739 14.6653 24.1927C14.8602 23.9115 14.9744 23.5822 14.9956 23.2407C15.0168 22.8992 14.9442 22.5584 14.7855 22.2552C14.6268 21.952 14.3882 21.698 14.0955 21.5207C13.8028 21.3435 13.4672 21.2497 13.125 21.2496ZM6.25003 13.7496L23.125 13.7496C23.9235 13.7498 24.7066 13.9686 25.3896 14.3822C26.0726 14.7957 26.6293 15.3883 26.9996 16.0957C27.3699 16.8031 27.5395 17.5983 27.4901 18.3952C27.4407 19.1922 27.1741 19.9603 26.7194 20.6166C26.2646 21.2728 25.6388 21.7921 24.91 22.1182C24.1812 22.4442 23.377 22.5646 22.5847 22.4663C21.7923 22.3679 21.042 22.0546 20.4149 21.5603C19.7879 21.066 19.3081 20.4096 19.0275 19.6621L21.3688 18.7833C21.489 19.1037 21.6946 19.385 21.9633 19.5969C22.232 19.8088 22.5536 19.9431 22.8932 19.9853C23.2327 20.0274 23.5774 19.9759 23.8898 19.8362C24.2021 19.6965 24.4703 19.4739 24.6653 19.1927C24.8602 18.9115 24.9744 18.5822 24.9956 18.2407C25.0168 17.8992 24.9442 17.5584 24.7855 17.2552C24.6268 16.952 24.3882 16.698 24.0955 16.5207C23.8028 16.3435 23.4672 16.2497 23.125 16.2496L6.25003 16.2496C5.25547 16.2496 4.30164 15.8545 3.59838 15.1512C2.89512 14.4479 2.50003 13.4941 2.50003 12.4996C2.50003 11.505 2.89512 10.5512 3.59838 9.84791C4.30164 9.14465 5.25547 8.74956 6.25003 8.74956L16.875 8.74956C17.2172 8.74942 17.5528 8.65563 17.8455 8.47837C18.1382 8.30111 18.3768 8.04713 18.5355 7.74395C18.6942 7.44076 18.7668 7.09994 18.7456 6.75841C18.7244 6.41688 18.6102 6.08766 18.4153 5.80642C18.2203 5.52519 17.9521 5.30266 17.6398 5.16295C17.3274 5.02324 16.9827 4.97168 16.6432 5.01385C16.3036 5.05603 15.982 5.19032 15.7133 5.4022C15.4446 5.61407 15.239 5.89543 15.1188 6.21581L12.7775 5.33831C13.1381 4.37932 13.8237 3.57723 14.715 3.07182C15.6062 2.56641 16.6465 2.3897 17.6546 2.5725C18.6627 2.75529 19.5747 3.28599 20.2317 4.07213C20.8887 4.85827 21.2491 5.85001 21.25 6.87456C21.25 8.03488 20.7891 9.14768 19.9686 9.96815C19.1481 10.7886 18.0353 11.2496 16.875 11.2496L6.25003 11.2496C5.91851 11.2496 5.60057 11.3813 5.36615 11.6157C5.13173 11.8501 5.00003 12.168 5.00003 12.4996C5.00003 12.8311 5.13173 13.149 5.36615 13.3834C5.60057 13.6179 5.91851 13.7496 6.25003 13.7496Z" fill="white"/>
</g>
<defs>
<filter id="filter0_di_2003_52" x="-2.26238" y="1.52588e-05" width="32.2624" height="33.0165" filterUnits="userSpaceOnUse" color-interpolation-filters="sRGB">
<feFlood flood-opacity="0" result="BackgroundImageFix"/>
<feColorMatrix in="SourceAlpha" type="matrix" values="0 0 0 0 0 0 0 0 0 0 0 0 0 0 0 0 0 0 127 0" result="hardAlpha"/>
<feOffset dx="-1.50827" dy="2.26241"/>
<feGaussianBlur stdDeviation="0.377069"/>
<feColorMatrix type="matrix" values="0 0 0 0 0 0 0 0 0 0 0 0 0 0 0 0 0 0 0.1 0"/>
<feBlend mode="normal" in2="BackgroundImageFix" result="effect1_dropShadow_2003_52"/>
<feBlend mode="normal" in="SourceGraphic" in2="effect1_dropShadow_2003_52" result="shape"/>
<feColorMatrix in="SourceAlpha" type="matrix" values="0 0 0 0 0 0 0 0 0 0 0 0 0 0 0 0 0 0 127 0" result="hardAlpha"/>
<feOffset dx="-0.754137" dy="0.754137"/>
<feGaussianBlur stdDeviation="0.754137"/>
<feComposite in2="hardAlpha" operator="arithmetic" k2="-1" k3="1"/>
<feColorMatrix type="matrix" values="0 0 0 0 1 0 0 0 0 1 0 0 0 0 1 0 0 0 0.25 0"/>
<feBlend mode="normal" in2="shape" result="effect2_innerShadow_2003_52"/>
</filter>
</defs>
</svg>
