<svg width="73" height="67" viewBox="0 0 73 67" fill="none" xmlns="http://www.w3.org/2000/svg">
<g id="Group 650">
<g id="Group 647">
<g id="Ellipse 8" opacity="0.67" filter="url(#filter0_f_19_135)">
<path d="M40.4603 26.8208C42.88 29.0045 48.5583 31.3201 46.3745 33.7398C44.1908 36.1595 31.709 43.0715 26.5119 40.3998C24.0922 38.2161 28.6798 31.1847 30.8635 28.765C33.0473 26.3453 38.0406 24.637 40.4603 26.8208Z" fill="url(#paint0_linear_19_135)" fill-opacity="0.3"/>
</g>
<g id="Union" filter="url(#filter1_ii_19_135)">
<path fill-rule="evenodd" clip-rule="evenodd" d="M36.7157 36.2513V36.2515H31.9646C29.5998 36.2515 27.6827 34.3345 27.6827 31.9696C27.6827 29.6048 29.5998 27.6877 31.9646 27.6877H32.1992C33.0292 27.6877 33.8069 27.9116 34.4753 28.3023C35.3441 25.7282 37.7784 23.8749 40.6456 23.8749H40.9682C44.3859 23.8749 47.1564 26.6454 47.1564 30.0631C47.1564 33.4808 44.3859 36.2513 40.9682 36.2513H36.7157Z" fill="white"/>
</g>
</g>
</g>
<defs>
<filter id="filter0_f_19_135" x="0.209055" y="0.19906" width="72.2723" height="66.4216" filterUnits="userSpaceOnUse" color-interpolation-filters="sRGB">
<feFlood flood-opacity="0" result="BackgroundImageFix"/>
<feBlend mode="normal" in="SourceGraphic" in2="BackgroundImageFix" result="shape"/>
<feGaussianBlur stdDeviation="12.8083" result="effect1_foregroundBlur_19_135"/>
</filter>
<filter id="filter1_ii_19_135" x="17.4361" y="15.336" width="34.2744" height="27.1774" filterUnits="userSpaceOnUse" color-interpolation-filters="sRGB">
<feFlood flood-opacity="0" result="BackgroundImageFix"/>
<feBlend mode="normal" in="SourceGraphic" in2="BackgroundImageFix" result="shape"/>
<feColorMatrix in="SourceAlpha" type="matrix" values="0 0 0 0 0 0 0 0 0 0 0 0 0 0 0 0 0 0 127 0" result="hardAlpha"/>
<feOffset dx="4.55407" dy="-8.53888"/>
<feGaussianBlur stdDeviation="8.53888"/>
<feComposite in2="hardAlpha" operator="arithmetic" k2="-1" k3="1"/>
<feColorMatrix type="matrix" values="0 0 0 0 0 0 0 0 0 0 0 0 0 0 0 0 0 0 0.2 0"/>
<feBlend mode="normal" in2="shape" result="effect1_innerShadow_19_135"/>
<feColorMatrix in="SourceAlpha" type="matrix" values="0 0 0 0 0 0 0 0 0 0 0 0 0 0 0 0 0 0 127 0" result="hardAlpha"/>
<feOffset dx="-10.2467" dy="6.26184"/>
<feGaussianBlur stdDeviation="8.53888"/>
<feComposite in2="hardAlpha" operator="arithmetic" k2="-1" k3="1"/>
<feColorMatrix type="matrix" values="0 0 0 0 1 0 0 0 0 1 0 0 0 0 1 0 0 0 1 0"/>
<feBlend mode="normal" in2="effect1_innerShadow_19_135" result="effect2_innerShadow_19_135"/>
</filter>
<linearGradient id="paint0_linear_19_135" x1="29.0817" y1="41.4697" x2="43.1366" y2="25.6964" gradientUnits="userSpaceOnUse">
<stop stop-color="#254659"/>
<stop offset="1" stop-color="#023553"/>
</linearGradient>
</defs>
</svg>
