<?xml version="1.0" standalone="no"?>
<!DOCTYPE svg PUBLIC "-//W3C//DTD SVG 20010904//EN"
 "http://www.w3.org/TR/2001/REC-SVG-20010904/DTD/svg10.dtd">
<svg version="1.0" xmlns="http://www.w3.org/2000/svg"
 width="1200.000000pt" height="1200.000000pt" viewBox="0 0 1200.000000 1200.000000"
 preserveAspectRatio="xMidYMid meet">

<g transform="translate(0.000000,1200.000000) scale(0.100000,-0.100000)"
fill="#000000" stroke="none">
<path d="M6320 6525 l0 -1965 1965 0 1965 0 0 1965 0 1965 -1965 0 -1965 0 0
-1965z m2852 2 c329 -837 600 -1530 604 -1539 6 -17 -9 -18 -232 -18 -132 0
-255 4 -273 10 -39 11 -86 52 -107 93 -8 15 -64 161 -124 325 -59 163 -112
305 -115 315 -7 16 -44 17 -642 15 l-635 -3 -118 -322 c-64 -178 -125 -334
-134 -348 -9 -14 -35 -37 -58 -53 l-41 -27 -259 -3 -258 -3 21 53 c11 29 282
717 601 1528 319 811 585 1481 590 1488 8 9 80 12 297 12 l286 0 597 -1523z"/>
<path d="M8252 7398 c-24 -81 -351 -994 -449 -1255 -4 -10 96 -13 481 -13 267
0 486 2 486 5 0 2 -92 256 -204 562 -165 453 -263 735 -280 806 -1 5 -16 -43
-34 -105z"/>
<path d="M3242 8243 c-365 -411 -412 -466 -411 -477 0 -6 20 -28 44 -48 l42
-38 79 90 c43 50 79 90 81 90 2 0 3 -187 3 -415 l0 -415 -665 0 -665 0 0
-1195 0 -1195 1998 2 1997 3 3 1193 2 1192 -660 0 -660 0 0 417 0 417 53 -59
c28 -33 64 -73 78 -89 l27 -30 46 38 c26 21 46 42 44 47 -2 5 -128 151 -282
324 l-279 315 -363 0 -363 0 -149 -167z m968 -129 c80 -91 147 -170 148 -175
2 -5 -244 -9 -608 -9 l-612 0 34 39 c18 21 87 99 153 174 l120 136 310 0 310
0 145 -165z m90 -694 l0 -390 -155 0 -155 0 0 275 0 275 -240 0 -240 0 0 -275
0 -275 -150 0 -150 0 0 390 0 390 545 0 545 0 0 -390z m-432 -177 l2 -213
-115 0 -115 0 0 215 0 216 113 -3 112 -3 3 -212z m-1448 -350 c0 -6 -503
-1090 -526 -1133 -11 -21 -13 63 -14 558 l0 582 270 0 c149 0 270 -3 270 -7z
m628 -5 c-3 -7 -117 -487 -253 -1065 l-249 -1053 -333 0 -333 0 0 324 0 323
311 669 c171 368 326 702 345 742 l33 72 242 0 c189 0 240 -3 237 -12z m632
-1053 l0 -1065 -501 0 -501 0 6 24 c14 55 496 2099 496 2102 0 2 113 4 250 4
l250 0 0 -1065z m855 132 c120 -512 233 -992 251 -1064 l31 -133 -503 0 -504
0 0 1065 0 1065 253 0 252 0 220 -933z m738 188 l347 -745 0 -320 0 -320 -337
0 -338 0 -220 933 c-120 512 -233 992 -251 1065 l-31 132 242 0 242 0 346
-745z m347 153 c0 -325 -2 -589 -4 -587 -5 5 -546 1168 -546 1174 0 3 124 5
275 5 l275 0 0 -592z"/>
<path d="M3317 4048 c-94 -240 -207 -530 -207 -533 0 -11 98 -4 107 8 6 6 18
36 27 65 l18 52 111 0 112 0 19 -52 c25 -73 31 -78 88 -78 44 0 49 2 43 18 -3
9 -52 133 -107 275 l-101 257 -52 0 c-33 0 -55 -5 -58 -12z m97 -212 c20 -54
36 -103 36 -108 0 -4 -34 -8 -75 -8 -41 0 -75 3 -75 8 0 10 72 213 75 210 1
-2 19 -48 39 -102z"/>
<path d="M4080 4045 c-149 -46 -220 -239 -144 -392 33 -66 92 -116 156 -133
94 -26 242 -5 282 39 14 15 16 37 14 122 l-3 104 -92 3 -93 3 0 -41 0 -40 45
0 45 0 0 -49 c0 -46 -2 -50 -31 -60 -49 -17 -101 -13 -149 12 -125 62 -134
244 -17 331 38 28 150 30 191 3 36 -24 67 -18 86 16 14 26 14 29 -10 47 -62
48 -187 63 -280 35z"/>
<path d="M4728 4055 c-5 -5 -8 -129 -8 -277 l0 -268 55 0 55 0 0 105 0 105 30
0 c26 0 37 -11 100 -105 l70 -105 61 0 c45 0 58 3 53 13 -4 6 -40 59 -79 117
l-72 105 31 20 c54 35 78 83 74 142 -9 107 -64 141 -246 150 -64 3 -120 2
-124 -2z m230 -101 c32 -22 43 -57 31 -94 -14 -38 -55 -60 -114 -60 l-45 0 0
85 0 85 53 0 c32 0 61 -6 75 -16z"/>
<path d="M5599 4046 c-120 -43 -179 -129 -179 -260 0 -122 45 -201 141 -249
63 -31 151 -38 229 -17 59 16 144 100 161 160 58 203 -63 381 -259 380 -31 -1
-73 -7 -93 -14z m167 -95 c62 -28 89 -79 89 -166 0 -81 -21 -126 -76 -163 -29
-20 -44 -23 -96 -20 -73 5 -107 25 -137 83 -24 47 -26 147 -3 191 44 85 134
115 223 75z"/>
<path d="M6297 4053 c-4 -3 -7 -127 -7 -275 l0 -268 50 0 50 0 2 180 3 180 95
-122 c183 -236 186 -238 231 -238 l39 0 -2 273 -3 272 -45 0 -45 0 -5 -179 -5
-179 -137 175 c-76 97 -145 178 -153 182 -22 8 -60 8 -68 -1z"/>
<path d="M7255 4044 c-103 -36 -168 -136 -168 -258 0 -170 104 -276 273 -276
171 0 270 101 270 275 0 96 -19 144 -80 202 -69 67 -197 92 -295 57z m180 -94
c113 -55 122 -255 15 -327 -46 -32 -134 -32 -180 0 -53 35 -75 81 -75 157 0
87 26 137 85 168 55 27 101 28 155 2z"/>
<path d="M7907 4053 c-2 -5 44 -127 102 -273 l107 -265 50 -3 49 -3 108 268
c59 147 107 271 107 276 0 4 -15 7 -34 7 -73 0 -75 -3 -156 -215 -41 -108 -76
-191 -78 -184 -23 77 -146 377 -159 387 -18 13 -89 17 -96 5z"/>
<path d="M8870 4038 c-6 -13 -55 -135 -109 -273 l-99 -250 46 -3 c54 -4 65 6
91 74 l19 49 113 0 112 0 19 -54 c10 -30 24 -58 31 -63 20 -13 97 -10 96 5 0
6 -46 129 -103 272 l-102 260 -52 3 c-46 3 -53 0 -62 -20z m102 -213 l37 -105
-81 0 c-60 0 -79 3 -75 13 2 6 20 54 38 104 19 51 36 93 39 93 3 0 22 -47 42
-105z"/>
</g>
</svg>
