<svg xmlns="http://www.w3.org/2000/svg" xmlns:xlink="http://www.w3.org/1999/xlink" version="1.1" x="0px" y="0px" viewBox="0 0 32 40" enable-background="new 0 0 32 32" xml:space="preserve"><g display="none"><rect x="-84.243" y="31.996" display="inline" fill="#000000" width="437.207" height="10"/></g><g><g><path d="M21.425,5.228l1.316,1.487l0.748-0.662L18.96,0.935h-5.816L8.599,6.071l0.748,0.662l1.316-1.487v6.721H0v19.099h32V11.966    H21.425V5.228z M15.5,12.966v17.099H7.423l4.038-17.099H15.5z M16.969,11.966H15.12V8.552h1.849V11.966z M16.5,12.966h4.029    l4.037,17.099H16.5V12.966z M13.595,1.935h4.914l2.485,2.807H11.11L13.595,1.935z M11.664,5.742h8.761v6.225h-2.456V7.552H14.12    v4.414h-2.456V5.742z M5.461,12.966L1,22.555v-9.589H5.461z M1,24.925l5.563-11.959h3.871L6.396,30.065H1V24.925z M25.593,30.065    l-4.037-17.099h3.871L31,24.946v5.119H25.593z M31,22.576l-4.47-9.61H31V22.576z"/></g></g><text x="0" y="47" fill="#000000" font-size="5px" font-weight="bold" font-family="'Helvetica Neue', Helvetica, Arial-Unicode, Arial, Sans-serif">Created by Icons By Alfredo</text><text x="0" y="52" fill="#000000" font-size="5px" font-weight="bold" font-family="'Helvetica Neue', Helvetica, Arial-Unicode, Arial, Sans-serif">from the Noun Project</text></svg>